<svg xmlns="http://www.w3.org/2000/svg" xmlns:xlink="http://www.w3.org/1999/xlink" viewBox="0 0 8500.01 3245.29"><defs><style>.cls-1{fill:url(#Bright_Purple_to_Royal);}.cls-2{fill:#dd3c91;}.cls-3{fill:url(#Bright_Purple_to_Royal-2);}.cls-4{fill:url(#Bright_Purple_to_Royal-3);}</style><linearGradient id="Bright_Purple_to_Royal" x1="149.87" y1="502.69" x2="2042.29" y2="2395.12" gradientUnits="userSpaceOnUse"><stop offset="0" stop-color="#8c5ca6"/><stop offset="0.26" stop-color="#805ea8"/><stop offset="0.74" stop-color="#6165ae"/><stop offset="1" stop-color="#4d69b1"/></linearGradient><linearGradient id="Bright_Purple_to_Royal-2" x1="4728.67" y1="1001.72" x2="6723.06" y2="2996.1" xlink:href="#Bright_Purple_to_Royal"/><linearGradient id="Bright_Purple_to_Royal-3" x1="2351.48" y1="687.91" x2="4424.72" y2="2761.15" xlink:href="#Bright_Purple_to_Royal"/></defs><g id="Layer_2" data-name="Layer 2"><g id="Layer_1-2" data-name="Layer 1"><path class="cls-1" d="M2172.84,874.64,1337.82,3067c-24.57,64.52-111.77,172.41-221.7,178.1-107,5.53-193-94.16-227.79-139.54-.37-1.27-.23-2.68-.87-3.89a20.19,20.19,0,0,0-4.91-7.64L6.86,838.69c-31.32-143.5,47.45-287.35,178.43-336.2,141.62-52.81,308,19,368.67,166.31q264.9,690.9,529.81,1381.78,271.34-699.4,542.66-1398.81c70.69-125.53,214-186.58,340.54-152C2116.22,540.45,2215,706.67,2172.84,874.64Z"/><path class="cls-2" d="M8477.64,1310.35,8368.58,1417.6a43.64,43.64,0,0,1-61.72-.51l-522.11-530.9a1.74,1.74,0,0,0-2.47,0l-530.91,522.11a43.64,43.64,0,0,1-61.71-.51l-107.59-109.4a43.65,43.65,0,0,1,.51-61.72l530.9-522.12a1.74,1.74,0,0,0,0-2.46L7091.72,181.5a43.64,43.64,0,0,1,.52-61.72L7201.3,12.53A43.65,43.65,0,0,1,7263,13L7784.8,543.61a1.76,1.76,0,0,0,2.47,0l530.9-522.12a43.64,43.64,0,0,1,61.72.52l107.59,109.4a43.64,43.64,0,0,1-.51,61.71L7956.06,715.26a1.76,1.76,0,0,0,0,2.47l522.12,530.9A43.64,43.64,0,0,1,8477.64,1310.35Z"/><path class="cls-3" d="M6327.22,2610.49l-927.83-2.1a191.36,191.36,0,0,1-60.88-34c-68.8-57.57-71.44-145.9-71.6-164.34V2177.72l1156.77-2.27s231.95-29.46,234.25-226.67q1.89-256,3.74-512.13c-6.33-67-60.35-557.48-465.34-800.29-202.55-121.42-412.64-132.79-486.9-136-90.73-3.91-303.64-10.4-533.67,112-54.76,29.13-263.82,147.11-401.07,402.58-119.72,222.89-120.59,430.92-115.4,522.47V2589.7c9.15,64.31,46,264.29,220.47,431.8,208.16,199.82,462.15,209.46,518.92,210.23h958.4c175.3-5.54,312.81-142.37,319.14-298.06C6683.28,2759.5,6524.58,2600,6327.22,2610.49ZM5612.56,1097.83c218.15-23.48,438.67,169.37,433.32,426.65l-778.55,3.44C5257.5,1304,5420.42,1118.49,5612.56,1097.83Z"/><path class="cls-4" d="M2360.94,826.19q2.58,787.13,5.17,1574.25c5.57,76.5,44.67,520.7,391,728.24,166.92,100,331.85,101.1,570.71,102.66,306.11,2,593.32,3.88,818.18-193.55,232.27-203.95,262.88-501.95,268.13-614.9L4409.73,834c13.09-190.28-146.85-342.33-316.36-333.61-151.32,7.78-284.7,142.36-284.4,311.18q-4.6,815.19-9.19,1630.37c-2.78,36.77-13.1,87-50,126.23-53.93,57.47-124.81,49.06-379.48,47-237.61-1.89-304.56,4.41-352.57-50.39-36.75-41.94-42.14-96.54-41.34-134.09q-3.21-805.65-6.43-1611.29c7.92-181.92-147.43-328.91-320.54-320.36C2484.9,507.24,2349,653.76,2360.94,826.19Z"/></g></g></svg>